<?xml version="1.0" encoding="utf-8"?>
<!-- Generator: Adobe Illustrator 24.0.1, SVG Export Plug-In . SVG Version: 6.00 Build 0)  -->
<svg version="1.1" id="Слой_1" xmlns="http://www.w3.org/2000/svg" xmlns:xlink="http://www.w3.org/1999/xlink" x="0px" y="0px"
	 viewBox="0 0 30 25.78" style="enable-background:new 0 0 30 25.78;" xml:space="preserve">
<style type="text/css">
	.st0{fill:#666666;}
	.st1{fill:#FFFFFF;stroke:#FFFFFF;stroke-width:1.4173;stroke-miterlimit:10;}
	.st2{fill:#FFFFFF;}
</style>
<path class="st0" d="M27.22,25.78H2.86c-1.52,0-2.77-1.24-2.77-2.77V2.77C0.09,1.24,1.33,0,2.86,0h24.36c1.52,0,2.77,1.24,2.77,2.77
	v20.25C29.99,24.54,28.74,25.78,27.22,25.78z"/>
<path class="st1" d="M26.47,22.43H3.7c-0.39,0-0.71-0.31-0.71-0.71V8.16h24.19v13.56C27.18,22.11,26.86,22.43,26.47,22.43z"/>
<path class="st2" d="M6.15,5.44H3.19c-0.37,0-0.68-0.31-0.68-0.68V3.52c0-0.37,0.31-0.68,0.68-0.68h2.92c0.39,0,0.71,0.31,0.71,0.71
	v1.21C6.83,5.13,6.52,5.44,6.15,5.44z"/>
<path class="st2" d="M26.86,5.44H9.61c-0.39,0-0.71-0.32-0.71-0.71V3.55c0-0.39,0.32-0.71,0.71-0.71h17.24
	c0.39,0,0.71,0.31,0.71,0.71v1.18C27.57,5.13,27.25,5.44,26.86,5.44z"/>
</svg>
